<svg width="34" height="34" viewBox="0 0 34 34" fill="none" xmlns="http://www.w3.org/2000/svg">
    <path d="M27.8048 12.3986C27.3742 13.7515 26.2693 14.8495 24.9136 15.2731C22.7206 15.9588 20.6351 15.0181 19.5924 13.362C19.5103 13.2317 19.516 13.0674 19.5911 12.9328C20.2073 11.8335 20.5572 10.5641 20.5572 9.20834C20.5572 8.73801 20.5161 8.27897 20.4339 7.82989C20.407 7.68256 20.4523 7.52955 20.5671 7.4318C21.3533 6.76455 22.3706 6.37501 23.4615 6.37501C26.4591 6.37501 28.7965 9.28052 27.8048 12.3986ZM25.6558 17.3967H22.8508C22.61 17.3967 22.4258 17.5808 22.4258 17.8216C22.4258 17.9349 22.4684 18.0484 22.5534 18.1192C22.5676 18.1334 22.5816 18.1474 22.5958 18.1616C24.5791 20.0741 25.5 22.8084 25.5 25.5284C25.5 26.0525 25.4717 26.5624 25.3867 27.0299C25.3726 27.0923 25.3682 27.1448 25.3682 27.2015C25.3682 27.4423 25.5566 27.625 25.7833 27.625H27.8517C30.4442 27.625 31.875 26.2084 31.875 23.6301C31.875 20.7542 30.2458 17.3967 25.6558 17.3967ZM12.7642 3.54167C9.63335 3.54167 7.09751 6.07751 7.09751 9.20834C7.09751 12.3392 9.63335 14.875 12.7642 14.875C15.8808 14.875 18.4308 12.3392 18.4308 9.20834C18.4308 6.07751 15.8808 3.54167 12.7642 3.54167ZM15.5833 17.7083H9.91667C4.165 17.7083 2.125 21.9159 2.125 25.5284C2.125 28.7584 3.83917 30.4583 7.08333 30.4583H18.4167C21.6608 30.4583 23.375 28.7584 23.375 25.5284C23.375 21.9159 21.335 17.7083 15.5833 17.7083Z" fill="url(#paint0_linear_1_47312)"/>
    <defs>
        <linearGradient id="paint0_linear_1_47312" x1="17" y1="3.54167" x2="17" y2="30.4583" gradientUnits="userSpaceOnUse">
            <stop stop-color="#6DC3F2"/>
            <stop offset="1" stop-color="#0289F2"/>
        </linearGradient>
    </defs>
</svg>
