<svg width="34" height="34" viewBox="0 0 34 34" fill="none" xmlns="http://www.w3.org/2000/svg">
    <path d="M16.9999 1.77083C8.60192 1.77083 1.77075 8.60342 1.77075 17C1.77075 25.3966 8.60192 32.2292 16.9999 32.2292C25.3979 32.2292 32.2291 25.3966 32.2291 17C32.2291 8.60342 25.3979 1.77083 16.9999 1.77083ZM3.89575 17C3.89575 15.4898 4.1649 14.0448 4.63807 12.6933C5.5164 19.0825 11.1207 19.6223 11.363 20.6408C11.6322 21.7883 11.363 22.1283 11.4622 24.0975C11.5613 26.0667 14.2813 26.095 15.3296 27.6533C15.6385 28.1067 15.817 29.0771 15.7405 30.0404C9.10345 29.4043 3.89575 23.8 3.89575 17ZM20.5558 29.6012C21.5205 26.5795 24.4175 25.5553 24.7122 23.8085C24.9488 22.4074 23.1071 21.6906 21.4539 21.4866C19.8162 21.2982 20.0528 19.5826 18.8883 18.3699C17.7238 17.1573 16.9617 17.2266 15.3254 17.4306C13.6722 17.6191 12.2866 17.5015 11.8291 16.4943C11.3885 15.487 11.9552 15.0053 10.751 13.7572C9.74799 12.7174 10.8246 11.7853 11.3601 11.6592C12.2101 11.4552 13.7217 12.9412 14.6071 12.7599C17.2747 12.2102 14.0787 6.98982 18.0851 5.67657C18.7863 5.44707 19.4422 4.88893 19.7723 4.1976C22.0616 4.69343 24.1215 5.79274 25.796 7.31424C26.2564 8.62466 26.5766 10.1292 26.3088 10.9268C25.7733 12.58 24.429 13.7686 25.8966 16.4744C27.428 19.2992 28.3729 19.6832 29.0614 18.9068C29.3348 18.598 29.6904 18.3799 30.0446 18.2481C29.5247 23.6838 25.6714 28.1548 20.5558 29.6012Z" fill="url(#paint0_linear_1501_1911)"/>
    <defs>
        <linearGradient id="paint0_linear_1501_1911" x1="16.9999" y1="1.77083" x2="16.9999" y2="32.2292" gradientUnits="userSpaceOnUse">
            <stop stop-color="#6DC3F2"/>
            <stop offset="1" stop-color="#0289F2"/>
        </linearGradient>
    </defs>
</svg>
