<svg width="34" height="34" viewBox="0 0 34 34" fill="none" xmlns="http://www.w3.org/2000/svg">
    <path d="M16.9999 2.83334C9.17567 2.83334 2.83325 9.17575 2.83325 17C2.83325 24.8243 9.17567 31.1667 16.9999 31.1667C24.8242 31.1667 31.1666 24.8243 31.1666 17C31.1666 9.17575 24.8242 2.83334 16.9999 2.83334ZM17.0113 9.91667C19.3587 9.91667 21.2613 11.8193 21.2613 14.1667C21.2613 16.5141 19.3587 18.4167 17.0113 18.4167C14.6639 18.4167 12.7613 16.5141 12.7613 14.1667C12.7613 11.8193 14.6639 9.91667 17.0113 9.91667ZM16.9999 29.0417C13.8691 29.0417 11.0074 27.8375 8.86827 25.8683C9.4916 23.9133 11.1066 22.0574 14.5775 22.0574H19.4224C22.879 22.0574 24.4941 23.9275 25.1316 25.8683C22.9924 27.8375 20.1308 29.0417 16.9999 29.0417Z" fill="url(#paint0_linear_1_47321)"/>
    <defs>
        <linearGradient id="paint0_linear_1_47321" x1="16.9999" y1="2.83334" x2="16.9999" y2="31.1667" gradientUnits="userSpaceOnUse">
            <stop stop-color="#6DC3F2"/>
            <stop offset="1" stop-color="#0289F2"/>
        </linearGradient>
    </defs>
</svg>
