<svg width="34" height="34" viewBox="0 0 34 34" fill="none" xmlns="http://www.w3.org/2000/svg">
    <path d="M30.5009 28.9992L25.0595 23.5577C26.8785 21.4002 27.9792 18.6192 27.9792 15.5833C27.9792 8.74792 22.4188 3.1875 15.5833 3.1875C8.74792 3.1875 3.1875 8.74792 3.1875 15.5833C3.1875 22.4187 8.74792 27.9792 15.5833 27.9792C18.6193 27.9792 21.4002 26.8784 23.5578 25.0594L28.9991 30.5008C29.206 30.7077 29.478 30.8125 29.75 30.8125C30.022 30.8125 30.294 30.7091 30.5009 30.5008C30.916 30.0872 30.916 29.4143 30.5009 28.9992ZM5.3125 15.5833C5.3125 9.9195 9.9195 5.3125 15.5833 5.3125C21.2472 5.3125 25.8542 9.9195 25.8542 15.5833C25.8542 21.2472 21.2472 25.8542 15.5833 25.8542C9.9195 25.8542 5.3125 21.2472 5.3125 15.5833Z" fill="url(#paint0_linear_1_47303)"/>
    <defs>
        <linearGradient id="paint0_linear_1_47303" x1="16.9998" y1="3.1875" x2="16.9998" y2="30.8125" gradientUnits="userSpaceOnUse">
            <stop stop-color="#6DC3F2"/>
            <stop offset="1" stop-color="#0289F2"/>
        </linearGradient>
    </defs>
</svg>
