<svg width="45" height="45" viewBox="0 0 45 45" fill="none" xmlns="http://www.w3.org/2000/svg">
<rect width="45" height="45" rx="22.5" fill="white"/>
<g clip-path="url(#clip0_1_47254)">
<path d="M28.8228 22.9754C28.8136 21.2737 29.5833 19.9893 31.1412 19.0433C30.2695 17.796 28.9527 17.1098 27.2138 16.9753C25.5678 16.8455 23.7687 17.9351 23.1102 17.9351C22.4147 17.9351 20.8197 17.0217 19.5677 17.0217C16.9804 17.0634 14.2307 19.0851 14.2307 23.198C14.2307 24.4128 14.4533 25.6678 14.8984 26.9631C15.4919 28.6648 17.6341 32.8379 19.8691 32.7684C21.0376 32.7406 21.8629 31.9384 23.3838 31.9384C24.8583 31.9384 25.6234 32.7684 26.9264 32.7684C29.1799 32.7359 31.1181 28.943 31.6838 27.2366C28.6605 25.8131 28.8228 23.0635 28.8228 22.9754ZM26.1984 15.3617C27.4642 13.8594 27.3483 12.4915 27.3112 12C26.1937 12.0649 24.9001 12.7604 24.1628 13.6183C23.3514 14.5363 22.8738 15.6724 22.9758 16.9521C24.186 17.0449 25.2896 16.4235 26.1984 15.3617Z" fill="black"/>
</g>
<defs>
<clipPath id="clip0_1_47254">
<rect width="20.7692" height="20.7692" fill="white" transform="translate(12.5 12)"/>
</clipPath>
</defs>
</svg>
