<svg width="32" height="32" viewBox="0 0 32 32" fill="none" xmlns="http://www.w3.org/2000/svg">
    <rect x="1" y="1" width="30" height="30" rx="15" fill="#6DC3F2"/>
    <rect x="1" y="1" width="30" height="30" rx="15" stroke="white" stroke-width="2"/>
    <path d="M21 11.8334H19.3333L18.785 10.1883C18.615 9.67744 18.1375 9.33337 17.5991 9.33337H14.4009C13.8625 9.33337 13.385 9.67744 13.215 10.1883L12.6667 11.8334H11C9.33333 11.8334 8.5 12.6667 8.5 14.3334V21C8.5 22.6667 9.33333 23.5 11 23.5H21C22.6667 23.5 23.5 22.6667 23.5 21V14.3334C23.5 12.6667 22.6667 11.8334 21 11.8334ZM16 20.1667C14.6192 20.1667 13.5 19.0475 13.5 17.6667C13.5 16.2859 14.6192 15.1667 16 15.1667C17.3808 15.1667 18.5 16.2859 18.5 17.6667C18.5 19.0475 17.3808 20.1667 16 20.1667ZM20.5833 15.5834C20.1233 15.5834 19.75 15.21 19.75 14.75C19.75 14.29 20.1233 13.9167 20.5833 13.9167C21.0433 13.9167 21.4167 14.29 21.4167 14.75C21.4167 15.21 21.0433 15.5834 20.5833 15.5834Z" fill="white"/>
</svg>
