<svg width="149" height="73" viewBox="0 0 149 73" fill="none" xmlns="http://www.w3.org/2000/svg">
<g filter="url(#filter0_di_11_162)">
<path d="M0 32C0 20.7989 0 15.1984 2.17987 10.9202C4.09734 7.15695 7.15695 4.09734 10.9202 2.17987C15.1984 0 20.7989 0 32 0H114C125.201 0 130.802 0 135.08 2.17987C138.843 4.09734 141.903 7.15695 143.82 10.9202C146 15.1984 146 20.7989 146 32V36C146 47.2011 146 52.8016 143.82 57.0798C141.903 60.8431 138.843 63.9027 135.08 65.8201C130.802 68 125.201 68 114 68H32C20.7989 68 15.1984 68 10.9202 65.8201C7.15695 63.9027 4.09734 60.8431 2.17987 57.0798C0 52.8016 0 47.2011 0 36V32Z" fill="white"/>
</g>
<rect x="92" y="4" width="45" height="45" rx="22.5" fill="white"/>
<rect x="100" y="8" width="30" height="30" rx="15" fill="white"/>
<defs>
<filter id="filter0_di_11_162" x="0" y="0" width="149" height="73" filterUnits="userSpaceOnUse" color-interpolation-filters="sRGB">
<feFlood flood-opacity="0" result="BackgroundImageFix"/>
<feColorMatrix in="SourceAlpha" type="matrix" values="0 0 0 0 0 0 0 0 0 0 0 0 0 0 0 0 0 0 127 0" result="hardAlpha"/>
<feOffset dx="3" dy="5"/>
<feComposite in2="hardAlpha" operator="out"/>
<feColorMatrix type="matrix" values="0 0 0 0 0 0 0 0 0 0 0 0 0 0 0 0 0 0 0.15 0"/>
<feBlend mode="normal" in2="BackgroundImageFix" result="effect1_dropShadow_11_162"/>
<feBlend mode="normal" in="SourceGraphic" in2="effect1_dropShadow_11_162" result="shape"/>
<feColorMatrix in="SourceAlpha" type="matrix" values="0 0 0 0 0 0 0 0 0 0 0 0 0 0 0 0 0 0 127 0" result="hardAlpha"/>
<feOffset dy="-4"/>
<feComposite in2="hardAlpha" operator="arithmetic" k2="-1" k3="1"/>
<feColorMatrix type="matrix" values="0 0 0 0 0.388235 0 0 0 0 0.745098 0 0 0 0 0.47451 0 0 0 0.13 0"/>
<feBlend mode="normal" in2="shape" result="effect2_innerShadow_11_162"/>
</filter>
</defs>
</svg>
