<svg width="16" height="8" viewBox="0 0 16 8" fill="none" xmlns="http://www.w3.org/2000/svg">
    <path d="M0.00188637 1.00176C0.0013752 0.768108 0.0923948 0.541672 0.259145 0.36176C0.353044 0.260501 0.468365 0.1768 0.598501 0.115448C0.728638 0.0540956 0.871032 0.0162993 1.01753 0.00422342C1.16403 -0.00785244 1.31176 0.00602958 1.45225 0.0450741C1.59274 0.0841185 1.72323 0.147558 1.83626 0.23176L7.83152 4.71176L13.838 0.39176C13.9524 0.308694 14.084 0.246663 14.2253 0.209231C14.3666 0.171799 14.5148 0.159705 14.6614 0.173645C14.808 0.187584 14.95 0.227281 15.0793 0.290454C15.2087 0.353628 15.3228 0.439033 15.4151 0.54176C15.5169 0.645226 15.5937 0.766392 15.6407 0.897654C15.6876 1.02892 15.7037 1.16744 15.688 1.30453C15.6722 1.44163 15.625 1.57433 15.5491 1.69431C15.4733 1.81429 15.3705 1.91897 15.2473 2.00176L8.53618 6.83176C8.33604 6.97884 8.085 7.05925 7.82592 7.05925C7.56685 7.05925 7.3158 6.97884 7.11566 6.83176L0.404553 1.83176C0.269194 1.73144 0.162191 1.60401 0.0922298 1.4598C0.0222673 1.31559 -0.00868416 1.15867 0.00188637 1.00176Z" fill="#AEAEAE" fill-opacity="0.7"/>
</svg>
