<svg width="23" height="21" viewBox="0 0 23 21" fill="none" xmlns="http://www.w3.org/2000/svg">
<path d="M16.7889 4.25H5.59626C3.73082 4.25 2.7981 5.1 2.7981 6.8V14.45C2.7981 16.15 3.73082 17 5.59626 17H16.7889C18.6544 17 19.5871 16.15 19.5871 14.45V6.8C19.5871 5.1 18.6544 4.25 16.7889 4.25ZM16.7338 8.1651L12.1524 11.2013C11.8651 11.3917 11.5284 11.4869 11.1926 11.4869C10.8568 11.4869 10.5191 11.3917 10.2328 11.2022L5.65137 8.1651C5.33891 7.95855 5.26985 7.55905 5.49743 7.2743C5.72408 6.9904 6.15953 6.9258 6.47479 7.13405L11.0564 10.1702C11.1385 10.2238 11.2476 10.2246 11.3297 10.1702L15.9113 7.13405C16.2256 6.9258 16.662 6.9904 16.8887 7.2743C17.1162 7.5599 17.0463 7.95855 16.7338 8.1651Z" fill="#0F9BE9"/>
</svg>
