<svg width="45" height="45" viewBox="0 0 45 45" fill="none" xmlns="http://www.w3.org/2000/svg">
<rect width="45" height="45" rx="22.5" fill="white"/>
<g clip-path="url(#clip0_1_47241)">
<path fill-rule="evenodd" clip-rule="evenodd" d="M12.1152 22.558C12.1152 27.7213 15.8652 32.0144 20.7691 32.8847V25.3846H18.1729V22.5H20.7691V20.1923C20.7691 17.5962 22.4421 16.1539 24.8076 16.1539C25.5575 16.1539 26.3653 16.2693 27.1152 16.3847V19.0385H25.7883C24.5191 19.0385 24.2306 19.6731 24.2306 20.4808V22.5H26.9998L26.5383 25.3846H24.2306V32.8847C29.1345 32.0144 32.8845 27.7213 32.8845 22.558C32.8845 16.8146 28.2114 12.1154 22.4998 12.1154C16.7883 12.1154 12.1152 16.8146 12.1152 22.558H12.1152Z" fill="#1877F2"/>
</g>
<defs>
<clipPath id="clip0_1_47241">
<rect width="20.7692" height="20.7692" fill="white" transform="translate(12.1152 12.1154)"/>
</clipPath>
</defs>
</svg>
