<svg width="45" height="45" viewBox="0 0 45 45" fill="none" xmlns="http://www.w3.org/2000/svg">
<rect width="45" height="45" rx="22.5" fill="white"/>
<g clip-path="url(#clip0_1_47246)">
<path d="M31.6961 20.794H30.9154V20.7538H22.1923V24.6307H27.6699C26.8708 26.8876 24.7235 28.5076 22.1923 28.5076C18.9808 28.5076 16.3769 25.9038 16.3769 22.6923C16.3769 19.4807 18.9808 16.8769 22.1923 16.8769C23.6747 16.8769 25.0234 17.4361 26.0503 18.3496L28.7918 15.6082C27.0608 13.9949 24.7453 13 22.1923 13C16.8397 13 12.5 17.3397 12.5 22.6923C12.5 28.0448 16.8397 32.3846 22.1923 32.3846C27.5449 32.3846 31.8846 28.0448 31.8846 22.6923C31.8846 22.0424 31.8177 21.408 31.6961 20.794Z" fill="#FFC107"/>
<path d="M13.6174 18.181L16.8018 20.5163C17.6635 18.3831 19.7502 16.8769 22.1922 16.8769C23.6747 16.8769 25.0233 17.4361 26.0502 18.3496L28.7917 15.6082C27.0607 13.9949 24.7452 13 22.1922 13C18.4694 13 15.2409 15.1017 13.6174 18.181Z" fill="#FF3D00"/>
<path d="M22.1923 32.3845C24.6958 32.3845 26.9706 31.4265 28.6905 29.8684L25.6907 27.33C24.7176 28.0671 23.508 28.5076 22.1923 28.5076C19.6713 28.5076 17.5308 26.9001 16.7244 24.6569L13.5637 27.0921C15.1678 30.2309 18.4254 32.3845 22.1923 32.3845Z" fill="#4CAF50"/>
<path d="M31.6962 20.794H30.9155V20.7538H22.1924V24.6307H27.67C27.2862 25.7148 26.5888 26.6496 25.6894 27.3305C25.6899 27.33 25.6903 27.33 25.6908 27.3295L28.6906 29.868C28.4783 30.0608 31.8847 27.5384 31.8847 22.6923C31.8847 22.0424 31.8178 21.408 31.6962 20.794Z" fill="#1976D2"/>
</g>
<defs>
<clipPath id="clip0_1_47246">
<rect width="19.3846" height="19.3846" fill="white" transform="translate(12.5 13)"/>
</clipPath>
</defs>
</svg>
