<svg width="23" height="21" viewBox="0 0 23 21" fill="none" xmlns="http://www.w3.org/2000/svg">
<path d="M15.6231 7.6994V5.95001C15.6231 3.72301 13.6364 1.91251 11.1926 1.91251C8.7489 1.91251 6.7622 3.72301 6.7622 5.95001V7.6994C5.36498 7.89745 4.66357 8.72866 4.66357 10.2V15.3C4.66357 17 5.5963 17.85 7.46174 17.85H14.9235C16.789 17.85 17.7217 17 17.7217 15.3V10.2C17.7217 8.72866 17.0203 7.89745 15.6231 7.6994ZM11.8922 12.739V14.45C11.8922 14.8019 11.5788 15.0875 11.1926 15.0875C10.8065 15.0875 10.4931 14.8019 10.4931 14.45V12.7176C10.2245 12.523 10.0406 12.2358 10.0406 11.9C10.0406 11.3135 10.5584 10.8375 11.202 10.8375H11.2113C11.8549 10.8375 12.3772 11.3135 12.3772 11.9C12.3772 12.2502 12.1785 12.5461 11.8922 12.739ZM14.224 7.65001H8.16128V5.95001C8.16128 4.42851 9.52305 3.18751 11.1926 3.18751C12.8622 3.18751 14.224 4.42851 14.224 5.95001V7.65001Z" fill="#0F9BE9"/>
</svg>
