<svg width="14" height="14" viewBox="0 0 14 14" fill="none" xmlns="http://www.w3.org/2000/svg">
    <g clip-path="url(#clip0_96_2504)">
        <path d="M10.8819 7.31692C10.8757 6.18244 11.3888 5.32617 12.4275 4.69557C11.8463 3.86403 10.9684 3.40653 9.80923 3.31688C8.71185 3.23033 7.51245 3.95676 7.0735 3.95676C6.60981 3.95676 5.54643 3.34779 4.7118 3.34779C2.9869 3.37561 1.15381 4.72339 1.15381 7.4653C1.15381 8.2752 1.30219 9.11189 1.59894 9.97537C1.99462 11.1099 3.42277 13.8919 4.91273 13.8456C5.69172 13.827 6.24196 13.2923 7.25588 13.2923C8.23889 13.2923 8.74894 13.8456 9.61757 13.8456C11.1199 13.8239 12.412 11.2953 12.7892 10.1578C10.7737 9.20875 10.8819 7.37565 10.8819 7.31692ZM9.13225 2.24114C9.97616 1.23958 9.89888 0.32767 9.87415 0C9.12916 0.0432771 8.26671 0.50696 7.77521 1.07884C7.23424 1.6909 6.91585 2.44825 6.98385 3.30142C7.79066 3.36325 8.52637 2.94903 9.13225 2.24114Z" fill="black"/>
    </g>
    <defs>
        <clipPath id="clip0_96_2504">
            <rect width="13.8462" height="13.8462" fill="white"/>
        </clipPath>
    </defs>
</svg>
