<svg width="23" height="21" viewBox="0 0 23 21" fill="none" xmlns="http://www.w3.org/2000/svg">
<path d="M19.2049 8.94204C19.7179 9.71554 19.7179 10.6845 19.2049 11.458C18.0576 13.2005 15.4926 16.15 11.1927 16.15C10.495 16.15 9.83844 16.0693 9.22844 15.929C9.02044 15.8814 8.95503 15.6384 9.10706 15.5007L10.8755 13.8891C10.9837 13.7905 11.1181 13.8125 11.1927 13.8125C13.379 13.8125 15.1568 12.1916 15.1568 10.2C15.1568 10.132 15.1456 9.99768 15.223 9.92713L17.7805 7.59648C17.899 7.48853 18.0985 7.49967 18.202 7.61952C18.6124 8.09212 18.9465 8.54509 19.2049 8.94204ZM20.0816 3.00055L3.29258 18.3005C3.1564 18.4246 2.97729 18.4875 2.79821 18.4875C2.61913 18.4875 2.44002 18.4255 2.30384 18.3005C2.03056 18.0515 2.03056 17.6477 2.30384 17.3987L5.75965 14.2494C4.57509 13.3305 3.71593 12.2706 3.18055 11.4572C2.66755 10.6837 2.66755 9.71471 3.18055 8.94121C4.32779 7.19871 6.89286 4.24919 11.1927 4.24919C12.894 4.24919 14.3146 4.71406 15.4954 5.37706L19.0928 2.09867C19.3661 1.84962 19.8092 1.84962 20.0825 2.09867C20.3558 2.34772 20.3549 2.7515 20.0816 3.00055ZM7.94685 12.2561L8.96246 11.3306C8.7554 10.9948 8.62772 10.6131 8.62772 10.2C8.62772 9.90252 8.69296 9.62203 8.80488 9.35853C8.9821 9.49453 9.20591 9.57954 9.45774 9.57954C10.036 9.57954 10.5118 9.14593 10.5118 8.61893C10.5118 8.38943 10.4186 8.18547 10.2693 8.02397C10.5585 7.92197 10.8663 7.86252 11.1927 7.86252C11.646 7.86252 12.0658 7.97888 12.4333 8.16758L13.4489 7.24204C12.8072 6.83234 12.0312 6.58752 11.1927 6.58752C9.01014 6.58752 7.22864 8.21102 7.22864 10.2C7.22864 10.965 7.49728 11.6713 7.94685 12.2561Z" fill="black" fill-opacity="0.23"/>
</svg>
